<?xml version="1.0" encoding="UTF-8" standalone="no"?>
<!DOCTYPE svg PUBLIC "-//W3C//DTD SVG 1.1//EN" "http://www.w3.org/Graphics/SVG/1.1/DTD/svg11.dtd">
<svg width="100%" height="100%" viewBox="0 0 512 512" version="1.1" xmlns="http://www.w3.org/2000/svg" xmlns:xlink="http://www.w3.org/1999/xlink" xml:space="preserve" xmlns:serif="http://www.serif.com/" style="fill-rule:evenodd;clip-rule:evenodd;stroke-linecap:round;stroke-linejoin:round;">
    <g transform="matrix(16.516129,0,0,16.516129,-16.516129,-16.516129)">
        <path d="M32,2.165L32,30.835C32,31.478 31.478,32 30.835,32L2.165,32C1.522,32 1,31.478 1,30.835L1,2.165C1,1.522 1.522,1 2.165,1L30.835,1C31.478,1 32,1.522 32,2.165Z" style="fill:rgb(31,40,57);"/>
    </g>
    <g transform="matrix(16,0,0,14.545455,-0,23.272727)">
        <rect x="2" y="5" width="28" height="22" style="fill:rgb(239,83,120);"/>
    </g>
    <g transform="matrix(16,0,0,16,-16,-16)">
        <path d="M3,28L3,4.12C3,3.502 3.502,3 4.12,3L29.88,3C30.498,3 31,3.502 31,4.12L31,29.88C31,30.498 30.498,31 29.88,31L6,31L3,28ZM25,9L21,7L13,7L9,9L25,9Z" style="fill:white;"/>
    </g>
    <g transform="matrix(16,0,0,16,368,16)">
        <g>
            <g transform="matrix(0.833333,0,0,0.833333,-16.412363,27.268873)">
                <path d="M0.025,-0L0.183,-0L0.235,-0.15L0.507,-0.15L0.559,-0L0.717,-0L0.461,-0.71L0.281,-0.71L0.025,-0ZM0.278,-0.277L0.371,-0.55L0.464,-0.277L0.278,-0.277Z" style="fill:rgb(168,164,165);fill-rule:nonzero;"/>
            </g>
            <g transform="matrix(0.833333,0,0,0.833333,-15.603196,27.268873)">
                <path d="M0.692,-0.255L0.532,-0.262C0.517,-0.167 0.462,-0.113 0.38,-0.113C0.256,-0.113 0.198,-0.217 0.198,-0.354C0.198,-0.492 0.255,-0.597 0.38,-0.597C0.459,-0.597 0.513,-0.547 0.53,-0.459L0.689,-0.466C0.658,-0.63 0.547,-0.726 0.383,-0.726C0.173,-0.726 0.041,-0.565 0.041,-0.354C0.041,-0.144 0.173,0.016 0.383,0.016C0.553,0.016 0.663,-0.084 0.692,-0.255Z" style="fill:rgb(168,164,165);fill-rule:nonzero;"/>
            </g>
            <g transform="matrix(0.833333,0,0,0.833333,-14.995696,27.268873)">
                <path d="M0.386,0.016C0.603,0.016 0.732,-0.126 0.732,-0.354C0.732,-0.584 0.603,-0.726 0.386,-0.726C0.17,-0.726 0.041,-0.584 0.041,-0.354C0.041,-0.126 0.17,0.016 0.386,0.016ZM0.199,-0.354C0.199,-0.507 0.268,-0.597 0.386,-0.597C0.506,-0.597 0.575,-0.507 0.575,-0.354C0.575,-0.203 0.506,-0.113 0.386,-0.113C0.268,-0.113 0.199,-0.203 0.199,-0.354Z" style="fill:rgb(168,164,165);fill-rule:nonzero;"/>
            </g>
            <g transform="matrix(0.833333,0,0,0.833333,-14.363196,27.268873)">
                <path d="M0.074,-0.71L0.074,-0L0.227,-0L0.227,-0.469L0.5,-0L0.674,-0L0.674,-0.71L0.521,-0.71L0.521,-0.224L0.242,-0.71L0.074,-0.71Z" style="fill:rgb(168,164,165);fill-rule:nonzero;"/>
            </g>
            <g transform="matrix(0.833333,0,0,0.833333,-13.739863,27.268873)">
                <path d="M0.204,-0.242L0.051,-0.233C0.062,-0.083 0.182,0.012 0.356,0.012C0.509,0.012 0.628,-0.064 0.628,-0.199C0.628,-0.312 0.527,-0.381 0.369,-0.416C0.295,-0.434 0.223,-0.453 0.22,-0.514C0.218,-0.565 0.264,-0.599 0.33,-0.599C0.405,-0.599 0.456,-0.552 0.465,-0.479L0.617,-0.485C0.601,-0.629 0.493,-0.726 0.333,-0.726C0.172,-0.726 0.065,-0.645 0.065,-0.516C0.065,-0.401 0.163,-0.339 0.317,-0.303C0.427,-0.275 0.472,-0.246 0.473,-0.194C0.474,-0.143 0.428,-0.116 0.36,-0.116C0.271,-0.116 0.218,-0.165 0.204,-0.242Z" style="fill:rgb(168,164,165);fill-rule:nonzero;"/>
            </g>
            <g transform="matrix(0.833333,0,0,0.833333,-13.174029,27.268873)">
                <path d="M0.386,0.016C0.603,0.016 0.732,-0.126 0.732,-0.354C0.732,-0.584 0.603,-0.726 0.386,-0.726C0.17,-0.726 0.041,-0.584 0.041,-0.354C0.041,-0.126 0.17,0.016 0.386,0.016ZM0.199,-0.354C0.199,-0.507 0.268,-0.597 0.386,-0.597C0.506,-0.597 0.575,-0.507 0.575,-0.354C0.575,-0.203 0.506,-0.113 0.386,-0.113C0.268,-0.113 0.199,-0.203 0.199,-0.354Z" style="fill:rgb(168,164,165);fill-rule:nonzero;"/>
            </g>
            <g transform="matrix(0.833333,0,0,0.833333,-12.541529,27.268873)">
                <path d="M0.074,-0L0.554,-0L0.554,-0.129L0.227,-0.129L0.227,-0.71L0.074,-0.71L0.074,-0Z" style="fill:rgb(168,164,165);fill-rule:nonzero;"/>
            </g>
            <g transform="matrix(0.833333,0,0,0.833333,-12.047363,27.268873)">
                <path d="M0.074,-0.71L0.074,-0L0.577,-0L0.577,-0.129L0.227,-0.129L0.227,-0.293L0.557,-0.293L0.557,-0.419L0.227,-0.419L0.227,-0.581L0.569,-0.581L0.569,-0.71L0.074,-0.71Z" style="fill:rgb(168,164,165);fill-rule:nonzero;"/>
            </g>
            <g transform="matrix(0.833333,0,0,0.833333,-11.338196,27.268873)">
                <path d="M0.025,-0L0.183,-0L0.235,-0.15L0.507,-0.15L0.559,-0L0.717,-0L0.461,-0.71L0.281,-0.71L0.025,-0ZM0.278,-0.277L0.371,-0.55L0.464,-0.277L0.278,-0.277Z" style="fill:rgb(168,164,165);fill-rule:nonzero;"/>
            </g>
            <g transform="matrix(0.833333,0,0,0.833333,-10.734029,27.268873)">
                <path d="M0.074,-0.71L0.074,-0L0.227,-0L0.227,-0.469L0.5,-0L0.674,-0L0.674,-0.71L0.521,-0.71L0.521,-0.224L0.242,-0.71L0.074,-0.71Z" style="fill:rgb(168,164,165);fill-rule:nonzero;"/>
            </g>
            <g transform="matrix(0.833333,0,0,0.833333,-10.121529,27.268873)">
                <path d="M0.319,-0.71L0.074,-0.71L0.074,-0L0.325,-0C0.552,-0 0.678,-0.127 0.678,-0.354C0.678,-0.582 0.549,-0.71 0.319,-0.71ZM0.227,-0.129L0.227,-0.581L0.319,-0.581C0.457,-0.581 0.523,-0.508 0.523,-0.354C0.523,-0.202 0.457,-0.129 0.319,-0.129L0.227,-0.129Z" style="fill:rgb(168,164,165);fill-rule:nonzero;"/>
            </g>
            <g transform="matrix(0.833333,0,0,0.833333,-9.331529,27.268873)">
                <path d="M0.692,-0.255L0.532,-0.262C0.517,-0.167 0.462,-0.113 0.38,-0.113C0.256,-0.113 0.198,-0.217 0.198,-0.354C0.198,-0.492 0.255,-0.597 0.38,-0.597C0.459,-0.597 0.513,-0.547 0.53,-0.459L0.689,-0.466C0.658,-0.63 0.547,-0.726 0.383,-0.726C0.173,-0.726 0.041,-0.565 0.041,-0.354C0.041,-0.144 0.173,0.016 0.383,0.016C0.553,0.016 0.663,-0.084 0.692,-0.255Z" style="fill:rgb(168,164,165);fill-rule:nonzero;"/>
            </g>
            <g transform="matrix(0.833333,0,0,0.833333,-8.724029,27.268873)">
                <path d="M0.386,0.016C0.603,0.016 0.732,-0.126 0.732,-0.354C0.732,-0.584 0.603,-0.726 0.386,-0.726C0.17,-0.726 0.041,-0.584 0.041,-0.354C0.041,-0.126 0.17,0.016 0.386,0.016ZM0.199,-0.354C0.199,-0.507 0.268,-0.597 0.386,-0.597C0.506,-0.597 0.575,-0.507 0.575,-0.354C0.575,-0.203 0.506,-0.113 0.386,-0.113C0.268,-0.113 0.199,-0.203 0.199,-0.354Z" style="fill:rgb(168,164,165);fill-rule:nonzero;"/>
            </g>
            <g transform="matrix(0.833333,0,0,0.833333,-8.091529,27.268873)">
                <path d="M0.074,-0.71L0.074,-0L0.227,-0L0.227,-0.461L0.392,-0.002L0.523,-0.002L0.688,-0.461L0.688,-0L0.841,-0L0.841,-0.71L0.637,-0.71L0.457,-0.194L0.278,-0.71L0.074,-0.71Z" style="fill:rgb(168,164,165);fill-rule:nonzero;"/>
            </g>
            <g transform="matrix(0.833333,0,0,0.833333,-7.339863,27.268873)">
                <path d="M0.074,-0.71L0.074,-0L0.227,-0L0.227,-0.461L0.392,-0.002L0.523,-0.002L0.688,-0.461L0.688,-0L0.841,-0L0.841,-0.71L0.637,-0.71L0.457,-0.194L0.278,-0.71L0.074,-0.71Z" style="fill:rgb(168,164,165);fill-rule:nonzero;"/>
            </g>
            <g transform="matrix(0.833333,0,0,0.833333,-6.577363,27.268873)">
                <path d="M0.645,-0.257L0.645,-0.711L0.492,-0.711L0.492,-0.257C0.492,-0.162 0.44,-0.113 0.352,-0.113C0.263,-0.113 0.212,-0.162 0.212,-0.257L0.212,-0.711L0.059,-0.711L0.059,-0.257C0.059,-0.089 0.172,0.016 0.352,0.016C0.532,0.016 0.645,-0.089 0.645,-0.257Z" style="fill:rgb(168,164,165);fill-rule:nonzero;"/>
            </g>
            <g transform="matrix(0.833333,0,0,0.833333,-5.990696,27.268873)">
                <path d="M0.074,-0.71L0.074,-0L0.227,-0L0.227,-0.469L0.5,-0L0.674,-0L0.674,-0.71L0.521,-0.71L0.521,-0.224L0.242,-0.71L0.074,-0.71Z" style="fill:rgb(168,164,165);fill-rule:nonzero;"/>
            </g>
            <g transform="matrix(0.833333,0,0,0.833333,-5.367363,27.268873)">
                <rect x="0.074" y="-0.71" width="0.153" height="0.71" style="fill:rgb(168,164,165);fill-rule:nonzero;"/>
            </g>
            <g transform="matrix(0.833333,0,0,0.833333,-5.116529,27.268873)">
                <path d="M0.605,-0.71L0.027,-0.71L0.027,-0.581L0.239,-0.581L0.239,-0L0.393,-0L0.393,-0.581L0.605,-0.581L0.605,-0.71Z" style="fill:rgb(168,164,165);fill-rule:nonzero;"/>
            </g>
            <g transform="matrix(0.833333,0,0,0.833333,-4.578196,27.268873)">
                <path d="M0.025,-0.71L0.272,-0.276L0.272,-0L0.425,-0L0.425,-0.276L0.67,-0.71L0.503,-0.71L0.348,-0.422L0.193,-0.71L0.025,-0.71Z" style="fill:rgb(168,164,165);fill-rule:nonzero;"/>
            </g>
            <g transform="matrix(0.833333,0,0,0.833333,-3.808196,27.268873)">
                <path d="M0.074,-0L0.373,-0C0.556,-0 0.653,-0.07 0.653,-0.201C0.653,-0.3 0.591,-0.359 0.476,-0.368C0.57,-0.376 0.623,-0.428 0.623,-0.513C0.623,-0.649 0.526,-0.71 0.333,-0.71L0.074,-0.71L0.074,-0ZM0.227,-0.125L0.227,-0.305L0.377,-0.305C0.45,-0.305 0.498,-0.275 0.498,-0.214C0.498,-0.154 0.45,-0.125 0.377,-0.125L0.227,-0.125ZM0.227,-0.417L0.227,-0.585L0.346,-0.585C0.423,-0.585 0.468,-0.559 0.468,-0.501C0.468,-0.445 0.421,-0.417 0.346,-0.417L0.227,-0.417Z" style="fill:rgb(168,164,165);fill-rule:nonzero;"/>
            </g>
            <g transform="matrix(0.833333,0,0,0.833333,-3.247363,27.268873)">
                <path d="M0.025,-0L0.183,-0L0.235,-0.15L0.507,-0.15L0.559,-0L0.717,-0L0.461,-0.71L0.281,-0.71L0.025,-0ZM0.278,-0.277L0.371,-0.55L0.464,-0.277L0.278,-0.277Z" style="fill:rgb(168,164,165);fill-rule:nonzero;"/>
            </g>
            <g transform="matrix(0.833333,0,0,0.833333,-2.664863,27.268873)">
                <path d="M0.204,-0.242L0.051,-0.233C0.062,-0.083 0.182,0.012 0.356,0.012C0.509,0.012 0.628,-0.064 0.628,-0.199C0.628,-0.312 0.527,-0.381 0.369,-0.416C0.295,-0.434 0.223,-0.453 0.22,-0.514C0.218,-0.565 0.264,-0.599 0.33,-0.599C0.405,-0.599 0.456,-0.552 0.465,-0.479L0.617,-0.485C0.601,-0.629 0.493,-0.726 0.333,-0.726C0.172,-0.726 0.065,-0.645 0.065,-0.516C0.065,-0.401 0.163,-0.339 0.317,-0.303C0.427,-0.275 0.472,-0.246 0.473,-0.194C0.474,-0.143 0.428,-0.116 0.36,-0.116C0.271,-0.116 0.218,-0.165 0.204,-0.242Z" style="fill:rgb(168,164,165);fill-rule:nonzero;"/>
            </g>
            <g transform="matrix(0.833333,0,0,0.833333,-2.110696,27.268873)">
                <path d="M0.074,-0.71L0.074,-0L0.577,-0L0.577,-0.129L0.227,-0.129L0.227,-0.293L0.557,-0.293L0.557,-0.419L0.227,-0.419L0.227,-0.581L0.569,-0.581L0.569,-0.71L0.074,-0.71Z" style="fill:rgb(168,164,165);fill-rule:nonzero;"/>
            </g>
            <g transform="matrix(0.833333,0,0,0.833333,-1.592363,27.268873)">
                <path d="M0.319,-0.71L0.074,-0.71L0.074,-0L0.325,-0C0.552,-0 0.678,-0.127 0.678,-0.354C0.678,-0.582 0.549,-0.71 0.319,-0.71ZM0.227,-0.129L0.227,-0.581L0.319,-0.581C0.457,-0.581 0.523,-0.508 0.523,-0.354C0.523,-0.202 0.457,-0.129 0.319,-0.129L0.227,-0.129Z" style="fill:rgb(168,164,165);fill-rule:nonzero;"/>
            </g>
            <g transform="matrix(0.833333,0,0,0.833333,-0.802363,27.268873)">
                <rect x="0.074" y="-0.71" width="0.153" height="0.71" style="fill:rgb(168,164,165);fill-rule:nonzero;"/>
            </g>
            <g transform="matrix(0.833333,0,0,0.833333,-0.559029,27.268873)">
                <path d="M0.692,-0.255L0.532,-0.262C0.517,-0.167 0.462,-0.113 0.38,-0.113C0.256,-0.113 0.198,-0.217 0.198,-0.354C0.198,-0.492 0.255,-0.597 0.38,-0.597C0.459,-0.597 0.513,-0.547 0.53,-0.459L0.689,-0.466C0.658,-0.63 0.547,-0.726 0.383,-0.726C0.173,-0.726 0.041,-0.565 0.041,-0.354C0.041,-0.144 0.173,0.016 0.383,0.016C0.553,0.016 0.663,-0.084 0.692,-0.255Z" style="fill:rgb(168,164,165);fill-rule:nonzero;"/>
            </g>
            <g transform="matrix(0.833333,0,0,0.833333,0.048471,27.268873)">
                <path d="M0.386,0.016C0.603,0.016 0.732,-0.126 0.732,-0.354C0.732,-0.584 0.603,-0.726 0.386,-0.726C0.17,-0.726 0.041,-0.584 0.041,-0.354C0.041,-0.126 0.17,0.016 0.386,0.016ZM0.199,-0.354C0.199,-0.507 0.268,-0.597 0.386,-0.597C0.506,-0.597 0.575,-0.507 0.575,-0.354C0.575,-0.203 0.506,-0.113 0.386,-0.113C0.268,-0.113 0.199,-0.203 0.199,-0.354Z" style="fill:rgb(168,164,165);fill-rule:nonzero;"/>
            </g>
            <g transform="matrix(0.833333,0,0,0.833333,0.680971,27.268873)">
                <path d="M0.074,-0.71L0.074,-0L0.227,-0L0.227,-0.469L0.5,-0L0.674,-0L0.674,-0.71L0.521,-0.71L0.521,-0.224L0.242,-0.71L0.074,-0.71Z" style="fill:rgb(168,164,165);fill-rule:nonzero;"/>
            </g>
            <g transform="matrix(0.833333,0,0,0.833333,1.495137,27.268873)">
                <path d="M0.69,-0L0.69,-0.37L0.38,-0.37L0.38,-0.257L0.536,-0.257C0.524,-0.172 0.472,-0.113 0.38,-0.113C0.256,-0.113 0.198,-0.217 0.198,-0.354C0.198,-0.492 0.255,-0.597 0.38,-0.597C0.46,-0.597 0.511,-0.551 0.53,-0.47L0.688,-0.477C0.654,-0.632 0.545,-0.726 0.383,-0.726C0.173,-0.726 0.041,-0.565 0.041,-0.354C0.041,-0.144 0.173,0.016 0.375,0.016C0.474,0.016 0.556,-0.03 0.589,-0.104L0.597,-0L0.69,-0Z" style="fill:rgb(168,164,165);fill-rule:nonzero;"/>
            </g>
            <g transform="matrix(0.833333,0,0,0.833333,2.108471,27.268873)">
                <path d="M0.074,-0.71L0.074,-0L0.577,-0L0.577,-0.129L0.227,-0.129L0.227,-0.293L0.557,-0.293L0.557,-0.419L0.227,-0.419L0.227,-0.581L0.569,-0.581L0.569,-0.71L0.074,-0.71Z" style="fill:rgb(168,164,165);fill-rule:nonzero;"/>
            </g>
            <g transform="matrix(0.833333,0,0,0.833333,2.621804,27.268873)">
                <path d="M0.074,-0.71L0.074,-0L0.227,-0L0.227,-0.469L0.5,-0L0.674,-0L0.674,-0.71L0.521,-0.71L0.521,-0.224L0.242,-0.71L0.074,-0.71Z" style="fill:rgb(168,164,165);fill-rule:nonzero;"/>
            </g>
            <g transform="matrix(0.833333,0,0,0.833333,3.234304,27.268873)">
                <path d="M0.074,-0.71L0.074,-0L0.577,-0L0.577,-0.129L0.227,-0.129L0.227,-0.293L0.557,-0.293L0.557,-0.419L0.227,-0.419L0.227,-0.581L0.569,-0.581L0.569,-0.71L0.074,-0.71Z" style="fill:rgb(168,164,165);fill-rule:nonzero;"/>
            </g>
            <g transform="matrix(0.833333,0,0,0.833333,3.752637,27.268873)">
                <path d="M0.385,-0.71L0.074,-0.71L0.074,-0L0.227,-0L0.227,-0.259L0.359,-0.259C0.442,-0.259 0.475,-0.239 0.48,-0.179L0.493,-0L0.647,-0L0.63,-0.203C0.623,-0.279 0.589,-0.316 0.515,-0.326C0.59,-0.348 0.641,-0.407 0.641,-0.497C0.641,-0.634 0.532,-0.71 0.385,-0.71ZM0.227,-0.388L0.227,-0.581L0.364,-0.581C0.441,-0.581 0.484,-0.547 0.484,-0.484C0.484,-0.422 0.441,-0.388 0.364,-0.388L0.227,-0.388Z" style="fill:rgb(168,164,165);fill-rule:nonzero;"/>
            </g>
            <g transform="matrix(0.833333,0,0,0.833333,4.333471,27.268873)">
                <path d="M0.025,-0L0.183,-0L0.235,-0.15L0.507,-0.15L0.559,-0L0.717,-0L0.461,-0.71L0.281,-0.71L0.025,-0ZM0.278,-0.277L0.371,-0.55L0.464,-0.277L0.278,-0.277Z" style="fill:rgb(168,164,165);fill-rule:nonzero;"/>
            </g>
            <g transform="matrix(0.833333,0,0,0.833333,4.869304,27.268873)">
                <path d="M0.605,-0.71L0.027,-0.71L0.027,-0.581L0.239,-0.581L0.239,-0L0.393,-0L0.393,-0.581L0.605,-0.581L0.605,-0.71Z" style="fill:rgb(168,164,165);fill-rule:nonzero;"/>
            </g>
            <g transform="matrix(0.833333,0,0,0.833333,5.379304,27.268873)">
                <path d="M0.386,0.016C0.603,0.016 0.732,-0.126 0.732,-0.354C0.732,-0.584 0.603,-0.726 0.386,-0.726C0.17,-0.726 0.041,-0.584 0.041,-0.354C0.041,-0.126 0.17,0.016 0.386,0.016ZM0.199,-0.354C0.199,-0.507 0.268,-0.597 0.386,-0.597C0.506,-0.597 0.575,-0.507 0.575,-0.354C0.575,-0.203 0.506,-0.113 0.386,-0.113C0.268,-0.113 0.199,-0.203 0.199,-0.354Z" style="fill:rgb(168,164,165);fill-rule:nonzero;"/>
            </g>
            <g transform="matrix(0.833333,0,0,0.833333,6.011804,27.268873)">
                <path d="M0.385,-0.71L0.074,-0.71L0.074,-0L0.227,-0L0.227,-0.259L0.359,-0.259C0.442,-0.259 0.475,-0.239 0.48,-0.179L0.493,-0L0.647,-0L0.63,-0.203C0.623,-0.279 0.589,-0.316 0.515,-0.326C0.59,-0.348 0.641,-0.407 0.641,-0.497C0.641,-0.634 0.532,-0.71 0.385,-0.71ZM0.227,-0.388L0.227,-0.581L0.364,-0.581C0.441,-0.581 0.484,-0.547 0.484,-0.484C0.484,-0.422 0.441,-0.388 0.364,-0.388L0.227,-0.388Z" style="fill:rgb(168,164,165);fill-rule:nonzero;"/>
            </g>
        </g>
    </g>
    <g transform="matrix(16,0,0,13.818182,-0,42.909091)">
        <rect x="2" y="5" width="28" height="22" style="fill:rgb(239,83,120);"/>
    </g>
    <g transform="matrix(11.201291,0,0,11.201291,98.58275,64.351121)">
        <g transform="matrix(1,0,0,1,2.050959,4.742011)">
            <path d="M13,7L8.7,2.7C7.766,1.771 6.234,1.771 5.3,2.7L2.7,5.3C1.771,6.234 1.771,7.766 2.7,8.7L7,13" style="fill:none;fill-rule:nonzero;stroke:white;stroke-width:2px;"/>
        </g>
        <g transform="matrix(1,0,0,1,2.050959,4.742011)">
            <path d="M8,6L10,4" style="fill:none;fill-rule:nonzero;stroke:white;stroke-width:2px;"/>
        </g>
        <g transform="matrix(1,0,0,1,2.050959,4.742011)">
            <path d="M18,16L20,14" style="fill:none;fill-rule:nonzero;stroke:white;stroke-width:2px;"/>
        </g>
        <g transform="matrix(1,0,0,1,2.050959,4.742011)">
            <path d="M17,11L21.3,15.3C22.24,16.24 22.24,17.76 21.3,18.7L18.7,21.3C17.76,22.24 16.24,22.24 15.3,21.3L11,17" style="fill:none;fill-rule:nonzero;stroke:white;stroke-width:2px;"/>
        </g>
        <g transform="matrix(1,0,0,1,2.050959,4.742011)">
            <path d="M21.174,6.812C21.703,6.284 22,5.566 22,4.819C22,3.272 20.727,2 19.181,2C18.434,2 17.716,2.297 17.188,2.825L3.842,16.174C3.61,16.405 3.438,16.691 3.342,17.004L2.021,21.356C2.007,21.402 2,21.451 2,21.499C2,21.773 2.226,21.999 2.5,21.999C2.549,21.999 2.597,21.992 2.644,21.978L6.997,20.658C7.31,20.563 7.595,20.392 7.827,20.161L21.174,6.812Z" style="fill:none;fill-rule:nonzero;stroke:white;stroke-width:2px;"/>
        </g>
        <g transform="matrix(1,0,0,1,2.050959,4.742011)">
            <path d="M15,5L19,9" style="fill:none;fill-rule:nonzero;stroke:white;stroke-width:2px;"/>
        </g>
    </g>
    <g transform="matrix(16,0,0,16,-51.197283,-0)">
        <g transform="matrix(1.916944,0,0,1.916944,-16.426663,-0.834496)">
            <g>
                <g transform="matrix(1.291667,0,0,1.291667,15.411288,2.937879)">
                    <path d="M0.401,-0.71L0.062,-0.71L0.062,-0L0.259,-0L0.259,-0.242L0.364,-0.242C0.432,-0.242 0.459,-0.223 0.463,-0.164L0.474,-0L0.671,-0L0.655,-0.2C0.649,-0.278 0.612,-0.315 0.532,-0.323C0.617,-0.346 0.665,-0.404 0.665,-0.498C0.665,-0.638 0.546,-0.71 0.401,-0.71ZM0.259,-0.4L0.259,-0.553L0.365,-0.553C0.43,-0.553 0.465,-0.526 0.465,-0.476C0.465,-0.426 0.43,-0.4 0.365,-0.4L0.259,-0.4Z" style="fill-rule:nonzero;"/>
                </g>
                <g transform="matrix(1.291667,0,0,1.291667,16.314163,2.937879)">
                    <path d="M0.395,0.016C0.62,0.016 0.754,-0.126 0.754,-0.354C0.754,-0.584 0.62,-0.726 0.395,-0.726C0.17,-0.726 0.035,-0.584 0.035,-0.354C0.035,-0.126 0.17,0.016 0.395,0.016ZM0.238,-0.354C0.238,-0.49 0.295,-0.569 0.395,-0.569C0.496,-0.569 0.553,-0.49 0.553,-0.354C0.553,-0.219 0.496,-0.141 0.395,-0.141C0.295,-0.141 0.238,-0.219 0.238,-0.354Z" style="fill-rule:nonzero;"/>
                </g>
                <g transform="matrix(1.291667,0,0,1.291667,17.311329,2.937879)">
                    <path d="M0.062,-0.71L0.062,-0L0.259,-0L0.259,-0.413L0.399,-0.003L0.539,-0.003L0.681,-0.413L0.681,-0L0.877,-0L0.877,-0.71L0.618,-0.71L0.47,-0.259L0.32,-0.71L0.062,-0.71Z" style="fill-rule:nonzero;"/>
                </g>
            </g>
        </g>
        <g transform="matrix(1.916944,0,0,1.916944,-10.426663,-0.834496)">
            <g>
                <g transform="matrix(1.291667,0,0,1.291667,15.341538,2.937879)">
                    <path d="M0.714,-0L0.714,-0.377L0.385,-0.377L0.385,-0.245L0.513,-0.245C0.498,-0.18 0.457,-0.141 0.387,-0.141C0.286,-0.141 0.236,-0.227 0.236,-0.354C0.236,-0.482 0.286,-0.569 0.387,-0.569C0.451,-0.569 0.493,-0.53 0.509,-0.459L0.712,-0.467C0.677,-0.631 0.56,-0.726 0.392,-0.726C0.178,-0.726 0.035,-0.568 0.035,-0.354C0.035,-0.14 0.178,0.016 0.377,0.016C0.478,0.016 0.556,-0.025 0.593,-0.094L0.601,-0L0.714,-0Z" style="fill:url(#_Linear1);fill-rule:nonzero;"/>
                </g>
                <g transform="matrix(1.291667,0,0,1.291667,16.315454,2.937879)">
                    <path d="M0.401,-0.71L0.062,-0.71L0.062,-0L0.259,-0L0.259,-0.242L0.364,-0.242C0.432,-0.242 0.459,-0.223 0.463,-0.164L0.474,-0L0.671,-0L0.655,-0.2C0.649,-0.278 0.612,-0.315 0.532,-0.323C0.617,-0.346 0.665,-0.404 0.665,-0.498C0.665,-0.638 0.546,-0.71 0.401,-0.71ZM0.259,-0.4L0.259,-0.553L0.365,-0.553C0.43,-0.553 0.465,-0.526 0.465,-0.476C0.465,-0.426 0.43,-0.4 0.365,-0.4L0.259,-0.4Z" style="fill:url(#_Linear2);fill-rule:nonzero;"/>
                </g>
                <g transform="matrix(1.291667,0,0,1.291667,17.237704,2.937879)">
                    <rect x="0.062" y="-0.71" width="0.197" height="0.71" style="fill:url(#_Linear3);fill-rule:nonzero;"/>
                </g>
                <g transform="matrix(1.291667,0,0,1.291667,17.652329,2.937879)">
                    <path d="M0.323,-0.71L0.062,-0.71L0.062,-0L0.329,-0C0.563,-0 0.694,-0.127 0.694,-0.354C0.694,-0.582 0.561,-0.71 0.323,-0.71ZM0.259,-0.157L0.259,-0.553L0.323,-0.553C0.442,-0.553 0.496,-0.491 0.496,-0.355C0.496,-0.219 0.442,-0.157 0.323,-0.157L0.259,-0.157Z" style="fill:url(#_Linear4);fill-rule:nonzero;"/>
                </g>
            </g>
        </g>
    </g>
    <defs>
        <linearGradient id="_Linear1" x1="0" y1="0" x2="1" y2="0" gradientUnits="userSpaceOnUse" gradientTransform="matrix(2.518,0,0,1.14,0,-0.35)"><stop offset="0" style="stop-color:rgb(239,83,120);stop-opacity:1"/><stop offset="1" style="stop-color:rgb(82,154,214);stop-opacity:1"/></linearGradient>
        <linearGradient id="_Linear2" x1="0" y1="0" x2="1" y2="0" gradientUnits="userSpaceOnUse" gradientTransform="matrix(2.518,0,0,1.14,-0.754,-0.35)"><stop offset="0" style="stop-color:rgb(239,83,120);stop-opacity:1"/><stop offset="1" style="stop-color:rgb(82,154,214);stop-opacity:1"/></linearGradient>
        <linearGradient id="_Linear3" x1="0" y1="0" x2="1" y2="0" gradientUnits="userSpaceOnUse" gradientTransform="matrix(2.518,0,0,1.14,-1.468,-0.35)"><stop offset="0" style="stop-color:rgb(239,83,120);stop-opacity:1"/><stop offset="1" style="stop-color:rgb(82,154,214);stop-opacity:1"/></linearGradient>
        <linearGradient id="_Linear4" x1="0" y1="0" x2="1" y2="0" gradientUnits="userSpaceOnUse" gradientTransform="matrix(2.518,0,0,1.14,-1.789,-0.35)"><stop offset="0" style="stop-color:rgb(239,83,120);stop-opacity:1"/><stop offset="1" style="stop-color:rgb(82,154,214);stop-opacity:1"/></linearGradient>
    </defs>
</svg>
